<svg width="554" height="397" viewBox="0 0 554 397" fill="none" xmlns="http://www.w3.org/2000/svg">
<path opacity="0.6" d="M322.067 70.0052C286.578 68.7777 252.751 57.3752 220.499 44.9024C188.247 32.4297 156.28 18.6077 121.623 11.9985C99.3399 7.7429 73.8563 7.14437 55.9056 19.0338C38.6277 30.4718 33.0468 50.2182 30.0449 68.5393C27.787 82.3257 26.4772 96.8325 32.6493 109.741C36.9458 118.699 44.5705 126.231 49.8456 134.814C68.1938 164.674 55.2227 201.499 35.3353 230.68C26.0083 244.375 15.1879 257.406 7.99135 271.968C0.794778 286.531 -2.53848 303.213 3.76107 318.065C10.0046 332.775 24.8768 343.842 40.9926 351.618C73.7238 367.398 112.291 371.912 149.899 374.499C233.149 380.165 316.848 377.71 400.317 375.255C431.208 374.342 462.237 373.424 492.623 368.661C509.499 366.018 526.924 361.829 539.177 351.715C554.727 338.872 558.585 317.132 548.162 301.027C530.681 274.022 482.348 267.312 470.126 238.329C463.404 222.376 470.31 204.603 480.085 189.807C501.048 158.07 536.195 130.223 538.045 93.9413C539.319 69.0211 522.424 44.0706 496.298 32.2775C468.918 19.9062 430.948 21.4685 410.75 41.9149C389.95 62.98 353.396 71.0856 322.067 70.0052Z" fill="#587EEC"/>
<path d="M123.901 367.753C123.901 367.753 95.8691 346.663 90.5736 319.835C88.4261 308.568 82.666 298.297 74.1571 290.563C70.0866 286.925 65.6902 283.665 61.0228 280.824" stroke="#9AB1F3" stroke-width="2" stroke-miterlimit="10"/>
<path d="M57.5927 263.924C60.0493 267.231 61.1604 281.246 61.1604 281.246C61.1604 281.246 48.0261 276.097 45.5644 272.795C44.3823 271.208 43.8823 269.218 44.1743 267.264C44.4663 265.309 45.5264 263.551 47.1215 262.374C48.7165 261.198 50.7158 260.7 52.6795 260.991C54.6433 261.281 56.4106 262.336 57.5927 263.924Z" fill="#587EEC"/>
<path d="M81.1499 274.92C81.4047 279.024 74.6923 291.39 74.6923 291.39C74.6923 291.39 66.4713 279.957 66.2114 275.854C66.1125 273.897 66.7922 271.981 68.1031 270.52C69.414 269.059 71.2506 268.171 73.215 268.048C75.1793 267.925 77.1131 268.578 78.5974 269.864C80.0817 271.15 80.9969 272.967 81.1448 274.92H81.1499Z" fill="#587EEC"/>
<path d="M103.983 306.531C102.128 310.203 90.0537 317.507 90.0537 317.507C90.0537 317.507 88.7643 303.508 90.6195 299.835C91.5327 298.108 93.0907 296.807 94.9582 296.212C96.8257 295.617 98.8534 295.775 100.605 296.652C102.356 297.53 103.692 299.057 104.324 300.904C104.955 302.752 104.833 304.772 103.983 306.531Z" fill="#587EEC"/>
<path d="M115.853 334.307C114.645 338.238 103.988 347.464 103.988 347.464C103.988 347.464 100.334 333.886 101.542 329.95C102.122 328.061 103.433 326.479 105.185 325.552C106.938 324.625 108.989 324.429 110.886 325.007C112.784 325.584 114.374 326.889 115.305 328.633C116.237 330.377 116.434 332.418 115.853 334.307Z" fill="#587EEC"/>
<path d="M62.5416 301.332C66.619 301.88 79.5086 296.087 79.5086 296.087C79.5086 296.087 68.6322 287.119 64.5344 286.571C62.5676 286.308 60.5764 286.834 58.9989 288.032C57.4213 289.23 56.3865 291.003 56.1223 292.96C55.858 294.917 56.3859 296.899 57.5897 298.469C58.7936 300.039 60.5748 301.069 62.5416 301.332Z" fill="#587EEC"/>
<path d="M76.8379 333.647C80.9152 332.952 91.4502 323.594 91.4502 323.594C91.4502 323.594 78.372 318.278 74.2997 318.973C73.3247 319.132 72.391 319.482 71.5525 320.002C70.7141 320.522 69.9874 321.202 69.4145 322.003C68.8415 322.804 68.4337 323.71 68.2145 324.669C67.9953 325.628 67.9691 326.62 68.1373 327.589C68.3056 328.558 68.665 329.484 69.1948 330.314C69.7247 331.144 70.4144 331.861 71.2243 332.425C72.0341 332.988 72.9481 333.386 73.9133 333.596C74.8785 333.806 75.876 333.823 76.8481 333.647H76.8379Z" fill="#587EEC"/>
<path d="M95.0587 363.163C99.1921 363.163 111.169 355.712 111.169 355.712C111.169 355.712 99.187 348.271 95.0536 348.271C93.0692 348.271 91.1662 349.055 89.763 350.451C88.3599 351.848 87.5716 353.742 87.5716 355.717C87.5716 357.691 88.3599 359.585 89.763 360.982C91.1662 362.378 93.0692 363.163 95.0536 363.163H95.0587Z" fill="#587EEC"/>
<path d="M396.219 185.339C396.219 185.339 413.497 154.88 439.541 146.105C450.477 142.49 459.941 135.444 466.513 126.024C469.595 121.52 472.255 116.744 474.459 111.755" stroke="#9AB1F3" stroke-width="2" stroke-miterlimit="10"/>
<path d="M490.809 106.176C487.843 109.036 474.036 111.999 474.036 111.999C474.036 111.999 477.425 98.3541 480.391 95.4883C481.823 94.1542 483.724 93.433 485.685 93.4799C487.645 93.5269 489.509 94.3382 490.875 95.7392C492.241 97.1402 492.999 99.019 492.987 100.971C492.974 102.923 492.192 104.792 490.809 106.176Z" fill="#587EEC"/>
<path d="M483.001 130.842C478.923 131.644 465.738 126.663 465.738 126.663C465.738 126.663 476.033 117.025 480.085 116.239C481.058 116.024 482.064 116.005 483.045 116.182C484.025 116.36 484.96 116.73 485.795 117.272C486.63 117.814 487.347 118.517 487.905 119.338C488.463 120.16 488.851 121.084 489.045 122.057C489.239 123.03 489.236 124.032 489.036 125.003C488.836 125.975 488.443 126.897 487.88 127.715C487.317 128.533 486.595 129.232 485.757 129.769C484.919 130.306 483.982 130.671 483.001 130.842Z" fill="#587EEC"/>
<path d="M454.581 157.563C450.677 156.219 441.804 145.283 441.804 145.283C441.804 145.283 455.565 142.148 459.479 143.492C460.42 143.803 461.289 144.296 462.036 144.944C462.784 145.591 463.394 146.38 463.833 147.264C464.271 148.148 464.529 149.111 464.591 150.095C464.653 151.079 464.518 152.066 464.193 152.997C463.869 153.929 463.362 154.787 462.702 155.523C462.041 156.258 461.241 156.855 460.346 157.28C459.452 157.705 458.482 157.948 457.492 157.997C456.503 158.046 455.513 157.898 454.581 157.563Z" fill="#587EEC"/>
<path d="M428.466 172.962C424.388 172.293 413.808 162.985 413.808 162.985C413.808 162.985 426.85 157.578 430.922 158.248C432.882 158.569 434.634 159.651 435.792 161.257C436.95 162.863 437.42 164.862 437.097 166.812C436.775 168.763 435.687 170.506 434.073 171.659C432.459 172.811 430.451 173.278 428.491 172.957L428.466 172.962Z" fill="#587EEC"/>
<path d="M454.225 115.996C454.22 120.109 461.717 132.044 461.717 132.044C461.717 132.044 469.204 120.124 469.204 116.016C469.23 115.022 469.056 114.033 468.692 113.107C468.328 112.181 467.781 111.338 467.084 110.626C466.387 109.913 465.553 109.347 464.633 108.961C463.712 108.575 462.724 108.375 461.725 108.375C460.726 108.375 459.737 108.575 458.816 108.961C457.896 109.347 457.063 109.913 456.365 110.626C455.668 111.338 455.122 112.181 454.757 113.107C454.393 114.033 454.219 115.022 454.245 116.016L454.225 115.996Z" fill="#587EEC"/>
<path d="M423.935 134.388C425.168 138.314 435.892 147.469 435.892 147.469C435.892 147.469 439.459 133.865 438.216 129.939C437.571 128.12 436.242 126.621 434.509 125.758C432.776 124.895 430.773 124.735 428.924 125.311C427.074 125.888 425.522 127.156 424.593 128.849C423.664 130.542 423.432 132.528 423.945 134.388H423.935Z" fill="#587EEC"/>
<path d="M396.988 156.285C397.539 160.343 406.55 171.182 406.55 171.182C406.55 171.182 412.365 158.375 411.815 154.301C411.706 153.315 411.399 152.359 410.914 151.492C410.428 150.625 409.773 149.863 408.987 149.251C408.201 148.64 407.301 148.191 406.338 147.931C405.375 147.67 404.37 147.605 403.381 147.737C402.392 147.869 401.44 148.197 400.581 148.701C399.721 149.205 398.971 149.874 398.376 150.671C397.78 151.467 397.35 152.374 397.112 153.338C396.874 154.302 396.832 155.304 396.988 156.285Z" fill="#587EEC"/>
<path opacity="0.25" d="M490.809 106.176C487.843 109.036 474.036 111.999 474.036 111.999C474.036 111.999 477.425 98.3541 480.391 95.4883C481.823 94.1542 483.724 93.433 485.685 93.4799C487.645 93.5269 489.509 94.3382 490.875 95.7392C492.241 97.1402 492.999 99.019 492.987 100.971C492.974 102.923 492.192 104.792 490.809 106.176Z" fill="black"/>
<path opacity="0.25" d="M483.001 130.842C478.923 131.644 465.738 126.663 465.738 126.663C465.738 126.663 476.033 117.025 480.085 116.239C481.058 116.024 482.064 116.005 483.045 116.182C484.025 116.36 484.96 116.73 485.795 117.272C486.63 117.814 487.347 118.517 487.905 119.338C488.463 120.16 488.851 121.084 489.045 122.057C489.239 123.03 489.236 124.032 489.036 125.003C488.836 125.975 488.443 126.897 487.88 127.715C487.317 128.533 486.595 129.232 485.757 129.769C484.919 130.306 483.982 130.671 483.001 130.842Z" fill="black"/>
<path opacity="0.25" d="M454.581 157.563C450.677 156.219 441.804 145.283 441.804 145.283C441.804 145.283 455.565 142.148 459.479 143.492C460.42 143.803 461.289 144.296 462.036 144.944C462.784 145.591 463.394 146.38 463.833 147.264C464.271 148.148 464.529 149.111 464.591 150.095C464.653 151.079 464.518 152.066 464.193 152.997C463.869 153.929 463.362 154.787 462.702 155.523C462.041 156.258 461.241 156.855 460.346 157.28C459.452 157.705 458.482 157.948 457.492 157.997C456.503 158.046 455.513 157.898 454.581 157.563Z" fill="black"/>
<path opacity="0.25" d="M428.466 172.962C424.388 172.293 413.808 162.985 413.808 162.985C413.808 162.985 426.85 157.578 430.922 158.248C432.882 158.569 434.634 159.651 435.792 161.257C436.95 162.863 437.42 164.862 437.097 166.812C436.775 168.763 435.687 170.506 434.073 171.659C432.459 172.811 430.451 173.278 428.491 172.957L428.466 172.962Z" fill="black"/>
<path opacity="0.25" d="M454.225 115.996C454.22 120.109 461.717 132.044 461.717 132.044C461.717 132.044 469.204 120.124 469.204 116.016C469.23 115.022 469.056 114.033 468.692 113.107C468.328 112.181 467.781 111.338 467.084 110.626C466.387 109.913 465.553 109.347 464.633 108.961C463.712 108.575 462.724 108.375 461.725 108.375C460.726 108.375 459.737 108.575 458.816 108.961C457.896 109.347 457.063 109.913 456.365 110.626C455.668 111.338 455.122 112.181 454.757 113.107C454.393 114.033 454.219 115.022 454.245 116.016L454.225 115.996Z" fill="black"/>
<path opacity="0.25" d="M423.935 134.388C425.168 138.314 435.892 147.469 435.892 147.469C435.892 147.469 439.459 133.865 438.216 129.939C437.571 128.12 436.242 126.621 434.509 125.758C432.776 124.895 430.773 124.735 428.924 125.311C427.074 125.888 425.522 127.156 424.593 128.849C423.664 130.542 423.432 132.528 423.945 134.388H423.935Z" fill="black"/>
<path opacity="0.25" d="M396.988 156.285C397.539 160.343 406.55 171.182 406.55 171.182C406.55 171.182 412.365 158.375 411.815 154.301C411.706 153.315 411.399 152.359 410.914 151.492C410.428 150.625 409.773 149.863 408.987 149.251C408.201 148.64 407.301 148.191 406.338 147.931C405.375 147.67 404.37 147.605 403.381 147.737C402.392 147.869 401.44 148.197 400.581 148.701C399.721 149.205 398.971 149.874 398.376 150.671C397.78 151.467 397.35 152.374 397.112 153.338C396.874 154.302 396.832 155.304 396.988 156.285Z" fill="black"/>
<path d="M397.213 184.735C397.213 184.735 400.607 149.919 420.821 131.405C429.347 123.689 435.13 113.431 437.304 102.169C438.293 96.8144 438.786 91.3812 438.776 85.9373" stroke="#9AB1F3" stroke-width="2" stroke-miterlimit="10"/>
<path d="M451.447 74.1899C449.918 78.0042 438.481 86.2822 438.481 86.2822C438.481 86.2822 436.024 72.4399 437.569 68.6256C438.312 66.794 439.756 65.3314 441.583 64.5595C443.41 63.7875 445.471 63.7695 447.311 64.5094C449.151 65.2493 450.621 66.6865 451.397 68.5048C452.172 70.3231 452.19 72.3735 451.447 74.2051V74.1899Z" fill="#587EEC"/>
<path d="M454.357 99.9165C450.978 102.28 436.875 103.056 436.875 103.056C436.875 103.056 442.37 90.1016 445.749 87.7379C446.55 87.141 447.464 86.7102 448.436 86.471C449.407 86.2318 450.417 86.1891 451.406 86.3454C452.394 86.5017 453.341 86.8538 454.191 87.3809C455.04 87.9079 455.775 88.5993 456.351 89.4139C456.927 90.2286 457.333 91.15 457.545 92.1236C457.756 93.0972 457.77 94.1032 457.584 95.0821C457.398 96.0609 457.017 96.9927 456.462 97.8222C455.908 98.6517 455.192 99.3622 454.357 99.9114V99.9165Z" fill="#587EEC"/>
<path d="M439.241 135.818C435.122 136.163 422.554 129.731 422.554 129.731C422.554 129.731 433.869 121.311 437.987 120.966C439.964 120.801 441.927 121.424 443.443 122.699C444.959 123.973 445.904 125.795 446.07 127.763C446.236 129.731 445.61 131.685 444.329 133.193C443.049 134.702 441.218 135.642 439.241 135.808V135.818Z" fill="#587EEC"/>
<path d="M421.652 160.414C417.651 161.428 404.175 157.233 404.175 157.233C404.175 157.233 413.894 147.033 417.895 145.998C419.816 145.502 421.856 145.786 423.567 146.788C425.277 147.789 426.518 149.425 427.016 151.337C427.514 153.248 427.229 155.279 426.223 156.981C425.217 158.683 423.572 159.918 421.652 160.414Z" fill="#587EEC"/>
<path d="M422.008 97.9483C423.68 101.707 435.372 109.615 435.372 109.615C435.372 109.615 437.36 95.6962 435.688 91.9377C434.855 90.1792 433.364 88.8147 431.534 88.1357C429.703 87.4567 427.678 87.5171 425.892 88.304C424.106 89.0908 422.7 90.5418 421.974 92.3467C421.248 94.1517 421.261 96.1676 422.008 97.9636V97.9483Z" fill="#587EEC"/>
<path d="M401.805 126.972C404.532 130.061 418.058 134.109 418.058 134.109C418.058 134.109 415.775 120.236 413.048 117.147C412.405 116.397 411.618 115.781 410.733 115.336C409.848 114.891 408.883 114.625 407.895 114.554C406.906 114.483 405.913 114.609 404.973 114.923C404.033 115.238 403.166 115.735 402.421 116.386C401.676 117.037 401.068 117.829 400.634 118.715C400.199 119.602 399.945 120.566 399.888 121.551C399.831 122.536 399.971 123.522 400.3 124.453C400.629 125.384 401.141 126.24 401.805 126.972Z" fill="#587EEC"/>
<path d="M386.061 157.872C388.222 161.372 400.867 167.637 400.867 167.637C400.867 167.637 400.974 153.581 398.829 150.076C397.76 148.458 396.101 147.317 394.202 146.896C392.303 146.475 390.314 146.807 388.656 147.821C386.999 148.835 385.804 150.452 385.324 152.328C384.844 154.205 385.118 156.193 386.087 157.872H386.061Z" fill="#587EEC"/>
<path d="M371.219 48.3872C372.066 45.2982 373.085 42.1939 373.798 39.0643C372.942 42.1939 371.918 45.3083 371.219 48.3872Z" fill="url(#paint0_linear_4_6)"/>
<path d="M367.427 78.1412C367.356 78.0194 367.305 77.8977 367.249 77.7861C367.249 77.7354 367.198 77.6948 367.178 77.6441C367.067 77.6962 366.953 77.742 366.836 77.781C366.612 77.8673 366.383 77.9484 366.148 78.0144C365.914 78.0803 365.817 78.1158 365.639 78.1564C365.491 78.2071 365.339 78.2461 365.185 78.273L365.226 78.3643C365.414 78.3238 365.598 78.2883 365.786 78.2375L365.837 78.8665C366.051 78.8665 366.25 78.8361 366.444 78.8361C366.535 78.8311 366.627 78.8311 366.719 78.8361C367.117 78.8361 367.463 78.8361 367.738 78.8361C367.631 78.6078 367.519 78.3694 367.427 78.1412ZM470.891 242.042C468.495 238.831 463.715 204.37 463.715 204.37C463.715 204.37 454.311 179.866 456.875 170.086C459.439 160.307 449.872 135.286 449.872 135.286C449.872 135.286 443.552 132.552 443.211 128.494C443.211 128.494 417.406 120.378 416.198 114.291C415.219 109.3 399.216 105.719 393.467 104.588C391.713 97.5477 389.95 90.9791 388.65 87.393C388.299 86.2771 387.967 85.3134 387.661 84.5525C385.465 78.973 378.676 78.4658 373.753 78.9122C373.539 77.9612 373.143 77.0604 372.585 76.2594C372.504 75.984 372.343 75.7387 372.122 75.5543C372.016 75.4647 371.903 75.3833 371.785 75.3108C371.696 75.1464 371.579 74.9988 371.439 74.8746C371.299 74.7492 371.145 74.6403 370.98 74.55C370.861 74.4862 370.739 74.4303 370.613 74.3826C370.318 74.2707 370.012 74.1874 369.701 74.1341C369.338 74.0598 368.97 74.0123 368.6 73.992C369.499 73.6004 370.301 73.0169 370.949 72.2827C371.39 71.7672 371.718 71.1661 371.913 70.5175C372.074 69.9782 372.146 69.4163 372.127 68.8538C371.994 69.0856 371.841 69.3047 371.668 69.5081C371.882 67.2611 370.689 64.9786 370.006 62.7417C369.179 59.8296 369.026 56.7687 369.558 53.7891C370.241 49.2951 371.933 44.7503 373.08 40.1751C373.083 40.1499 373.083 40.1243 373.08 40.099C373.681 37.8269 374.053 35.5008 374.191 33.1551C374.39 28.4227 373.171 23.7004 371.214 19.3889C369.476 15.5695 366.913 11.8109 362.988 10.2588C360.073 9.08712 356.806 9.27479 353.666 9.08205C346.623 8.64583 339.905 6.1807 333.208 3.93875C326.511 1.69681 319.62 -0.342252 312.571 0.0483133C305.523 0.438879 298.27 3.82209 295.054 10.0306C294.035 11.9682 293.449 14.1239 292.23 15.9448C289.947 19.3788 285.86 21.0983 282.45 23.467C279.04 25.8358 276.038 29.1987 274.805 33.2109C274.131 35.3725 274.036 37.6717 274.53 39.8809C274.64 40.3799 274.783 40.8712 274.958 41.3519C275.441 42.6921 276.196 43.9195 277.175 44.9583C277.913 45.7261 278.761 46.3807 279.692 46.901C280.862 47.546 282.113 48.0306 283.413 48.3415C283.367 48.4937 283.321 48.656 283.27 48.8132C283.189 49.0719 283.117 49.3205 283.041 49.5994C282.873 50.2233 282.715 50.8574 282.582 51.4965C282.577 51.542 282.577 51.5879 282.582 51.6334C281.956 54.5185 281.642 57.4619 281.645 60.4135C281.644 61.8095 281.715 63.2045 281.859 64.5931C283.897 85.1764 300.971 101.413 322.067 102.468C322.79 102.503 323.519 102.524 324.258 102.524C324.595 102.524 324.926 102.524 325.278 102.524C325.609 102.96 325.935 103.406 326.246 103.842C326.557 104.279 326.842 104.725 327.112 105.161L326.373 104.4L325.634 103.726C325.434 103.999 325.211 104.256 324.967 104.492C324.485 104.323 323.993 104.184 323.494 104.076C321.379 103.609 318.157 103.437 313.917 104.71C310.018 105.871 305.253 108.26 299.677 112.8L272.506 129.031L257.807 137.928L252.512 150.812C252.512 150.812 248.531 166.12 244.102 183.66C243.929 183.711 243.761 183.761 243.592 183.822C243.234 183.782 242.873 183.761 242.512 183.761C239.942 183.755 237.47 184.741 235.615 186.51C233.76 188.28 232.666 190.696 232.563 193.252C223.756 203.903 223.256 214.555 225.326 219.445C225.513 219.903 225.749 220.34 226.029 220.748C227.385 222.696 229.918 227.718 232.487 233.069C232.42 233.51 232.38 233.881 232.359 234.16C232.355 234.251 232.355 234.342 232.359 234.433C232.359 234.433 233.888 257.416 228.792 264.005C227.675 265.44 227.844 267.327 228.792 269.417C232.206 276.934 245.708 286.972 245.708 286.972C245.708 286.972 261.9 286.886 270.921 285.907C270.896 286.81 270.875 287.708 270.855 288.585C270.651 297.451 270.651 304.882 270.651 304.882L270.315 314.18C270.315 314.18 267.257 333.774 265.727 339.176C264.764 342.564 265.875 373.936 266.844 397H426.381C428.257 383.356 425.612 341.9 425.612 341.9C425.612 341.9 423.099 331.182 423.007 321.839C423.002 321.829 423 321.817 423 321.806C423 321.795 423.002 321.783 423.007 321.773C423.007 320.956 423.007 320.16 423.038 319.379L424.195 319.338L426.274 319.267H426.463C426.463 319.267 426.514 319.075 426.631 318.76C426.906 317.977 427.281 317.232 427.747 316.543C428.634 315.24 430.02 313.962 432.105 313.875C433.257 313.83 435.041 312.902 437.054 311.532C437.067 311.535 437.081 311.535 437.095 311.532C442.512 307.885 449.673 301.154 451.411 300.048C453.802 298.527 465.249 288.382 465.249 288.382C465.249 288.382 466.956 286.232 468.776 283.64L468.842 283.548C471.105 280.302 473.511 276.422 472.919 275.199C471.9 273.008 473.602 267.768 473.602 267.768C478.918 258.085 473.286 245.253 470.891 242.042ZM372.336 86.0286C372.384 86.18 372.415 86.3366 372.427 86.4952C372.3 86.3278 372.173 86.1503 372.045 85.988L371.923 85.8257L371.836 85.7039L372.03 85.4402C372.03 85.4402 372.03 85.4402 372.03 85.4757C372.164 85.6401 372.268 85.8274 372.336 86.0286ZM370.623 81.5345C370.068 81.6461 369.629 81.7476 369.344 81.8236C368.982 81.1845 368.635 80.5454 368.324 79.8962C369.142 80.3679 369.911 80.9166 370.623 81.5345ZM369.665 82.3359C369.663 82.3259 369.663 82.3156 369.665 82.3055L369.706 82.3359C369.915 82.4729 370.119 82.6048 370.307 82.7417C370.475 82.8635 370.628 82.9801 370.781 83.1019C370.679 83.2794 370.567 83.462 370.455 83.6091C370.277 83.3301 370.108 83.0613 369.945 82.7823C369.843 82.6707 369.752 82.5185 369.665 82.3359ZM366.607 76.0768C367.592 75.9801 368.583 75.9801 369.568 76.0768C369.706 76.0768 369.828 76.1021 369.95 76.1224C370.227 76.1649 370.498 76.2346 370.761 76.3304C371.363 77.169 371.734 78.1501 371.836 79.1759L371.561 79.2165L371.291 79.2672C370.781 79.3534 370.271 79.4397 369.874 79.5208L369.364 79.6273C368.686 79.7744 368.294 79.886 368.279 79.8911C368.212 79.7542 368.146 79.6273 368.075 79.4955C367.963 79.2774 367.845 79.0542 367.743 78.8361C367.642 78.618 367.509 78.3694 367.402 78.1412C367.331 78.0194 367.28 77.8977 367.224 77.7861C367.224 77.7354 367.173 77.6948 367.152 77.6441C367.123 77.5903 367.097 77.5343 367.076 77.4767C366.765 76.8477 366.479 76.2188 366.204 75.6C366.174 75.5391 366.148 75.4732 366.123 75.4123L366.51 75.3869V75.5188L366.607 76.0768ZM245.004 390.731C244.963 383.178 244.413 375.007 242.884 367.337C242.232 364.076 241.559 360.814 240.876 357.609C240.703 356.807 240.534 356.016 240.366 355.225L238.796 355.433H238.654C234.372 335.341 229.898 317.639 229.898 317.639C229.898 317.639 221.009 283.863 222.038 281.169C222.171 280.819 222.003 279.876 221.626 278.491C219.475 270.812 210.494 249.65 207.355 242.417C207.355 242.387 207.329 242.351 207.319 242.326C206.809 241.114 206.442 240.297 206.33 240.059L207.069 229.265L207.11 228.615L207.207 227.236L207.166 227.2L207.207 226.561C207.207 226.561 199.45 220.231 186.31 215.661C185.801 215.478 185.26 215.301 184.725 215.128C185.383 210.761 186.254 205.831 187.391 201.027C187.498 200.545 187.615 200.079 187.737 199.607C187.844 199.135 187.967 198.679 188.089 198.217C188.283 197.467 188.492 196.726 188.706 195.996C189.414 195.772 190.113 195.524 190.801 195.26L191.066 195.159C199.542 191.876 206.536 185.648 210.753 177.628C214.97 169.608 216.124 160.339 214.001 151.537C212.79 146.545 210.555 141.857 207.436 137.766C207.202 137.451 206.952 137.137 206.702 136.827C206.453 136.518 206.152 136.173 205.872 135.859C207.345 132.526 209.083 129.356 209.225 126.115C209.251 125.704 209.251 125.293 209.225 124.882V124.832C209.037 122.747 208.109 120.637 205.948 118.42C202.793 115.169 198.303 113.52 193.813 112.729C189.323 111.938 184.746 111.917 180.23 111.385C172.743 110.492 165.449 108.194 157.962 107.489C148.74 106.639 139.456 108.214 131.036 112.054C125.466 114.591 119.824 119.024 119.487 125.105C119.212 130.132 122.729 134.951 121.842 139.916C120.96 144.796 115.965 148.636 116.404 153.571C116.572 155.499 117.566 157.223 118.809 158.76C119.237 159.267 119.691 159.774 120.16 160.282C121.974 162.194 123.972 164.03 124.987 166.439C125.027 166.541 125.068 166.642 125.104 166.744C125.965 169.123 125.578 172.131 123.447 173.495C123.459 173.504 123.468 173.516 123.473 173.531C123.503 173.571 123.534 173.602 123.559 173.642C123.563 173.634 123.563 173.625 123.559 173.617C124.315 174.508 125.333 175.14 126.47 175.422L126.903 175.554C126.551 175.935 126.22 176.33 125.884 176.746L125.664 177.035C125.103 177.787 124.592 178.575 124.135 179.394C123.875 179.851 123.626 180.307 123.417 180.764C122.718 182.155 122.212 183.634 121.913 185.161C121.368 188.519 122.138 192.019 121.312 195.306C120.292 199.364 117.066 202.478 115.247 206.247C111.801 213.348 113.753 221.682 114.447 229.523C115.389 240.175 113.86 250.873 112.337 261.453C111.528 267.08 110.719 272.712 109.91 278.349C107.872 292.497 105.833 306.646 103.794 320.794C103.05 325.978 102.169 331.446 98.6977 335.448H98.7334C98.7334 335.448 98.7334 335.478 98.6977 335.488C99.7396 335.942 100.848 336.226 101.98 336.33C106.511 336.782 111.312 334.601 115.389 332.217C118.618 330.36 121.676 328.223 124.528 325.831C124.11 327.353 123.661 329.011 123.182 330.797C123.184 330.813 123.184 330.83 123.182 330.847C117.428 352.658 108.172 392.643 108.172 392.643C108.172 392.643 107.332 394.383 106.241 396.975H249.968C248.286 394.946 246.722 393.003 245.499 391.436L245.004 390.731ZM138.585 189.057C138.62 188.996 138.646 188.94 138.681 188.884C138.681 189.047 138.681 189.204 138.681 189.356C138.681 189.508 138.681 189.645 138.681 189.787C138.681 189.929 138.681 189.914 138.681 189.985C138.681 189.985 138.681 190.056 138.681 189.985C138.681 190.193 138.636 190.401 138.6 190.609C138.6 190.609 138.6 190.634 138.6 190.655L139.11 190.842L139.701 191.086C143.194 192.459 146.731 193.701 150.312 194.814C150.679 194.93 151.051 195.042 151.423 195.149L151.5 195.778C151.591 196.422 151.678 197.076 151.76 197.73C151.76 197.73 151.76 197.761 151.76 197.781C151.989 199.592 152.213 201.398 152.412 203.163C152.412 203.163 143.054 199.612 143.172 205.004C143.166 205.1 143.166 205.197 143.172 205.293C143.161 205.421 143.161 205.55 143.172 205.679C143.258 209.878 144.578 212.369 144.843 213.647C144.828 213.7 144.8 213.749 144.762 213.789C144.536 214.279 144.458 214.824 144.538 215.357C144.529 216.264 144.6 217.17 144.752 218.065C144.476 218.233 144.206 218.4 143.936 218.572C143.732 218.699 143.539 218.841 143.34 218.983C142.09 214.667 140.454 210.471 138.452 206.445C137.051 203.574 135.476 200.581 135.491 197.431C135.491 197.228 135.491 197.02 135.516 196.812C135.573 195.899 135.748 194.998 136.036 194.129C136.154 193.799 136.281 193.475 136.424 193.155C136.757 192.396 137.129 191.654 137.54 190.934C137.805 190.457 138.085 189.985 138.355 189.508C138.442 189.366 138.523 189.219 138.605 189.077L138.585 189.057ZM367.427 78.1412C367.356 78.0194 367.305 77.8977 367.249 77.7861C367.249 77.7354 367.198 77.6948 367.178 77.6441C367.067 77.6962 366.953 77.742 366.836 77.781C366.612 77.8673 366.383 77.9484 366.148 78.0144C365.914 78.0803 365.817 78.1158 365.639 78.1564L365.185 78.273L365.226 78.3643C365.414 78.3238 365.598 78.2883 365.786 78.2375L365.837 78.8665C366.051 78.8665 366.25 78.8361 366.444 78.8361H366.719C367.117 78.8361 367.463 78.8361 367.738 78.8361C367.631 78.6078 367.519 78.3694 367.427 78.1412Z" fill="url(#paint1_linear_4_6)"/>
<path d="M256.064 152.643L253.006 153.987C253.006 153.987 233.073 231.055 233.073 237.284C233.073 243.513 275.34 278.172 275.34 278.172L281.935 233.87C281.935 233.87 272.465 132.278 256.064 152.643Z" fill="#E8F5FF"/>
<path d="M348.779 128.128L331.118 118.958C330.129 114.761 328.374 110.781 325.94 107.215C323.356 103.503 319.921 99.8555 315.64 97.9534C304.819 93.1246 361.408 67.7784 361.408 67.7784C362.3 70.8232 363.349 73.8199 364.553 76.7564C367.468 83.9184 372.305 93.1804 378.538 95.818C389.134 100.307 348.779 128.128 348.779 128.128Z" fill="#FFB0B1"/>
<path opacity="0.1" d="M364.553 76.7564C362.135 85.2194 357.107 92.7128 350.178 98.1781C343.25 103.643 334.771 106.805 325.94 107.215C323.356 103.503 319.921 99.8555 315.64 97.9534C304.819 93.1246 361.408 67.7784 361.408 67.7784C362.3 70.8232 363.349 73.8199 364.553 76.7564Z" fill="black"/>
<path d="M366.143 63.959C366.145 72.2592 363.674 80.3735 359.042 87.2757C354.409 94.1779 347.825 99.558 340.12 102.736C332.415 105.913 323.936 106.745 315.756 105.127C307.576 103.508 300.062 99.512 294.164 93.6433C288.267 87.7746 284.25 80.297 282.623 72.1564C280.996 64.0158 281.831 55.5777 285.023 47.9095C288.215 40.2413 293.62 33.6873 300.555 29.0765C307.49 24.4657 315.643 22.0052 323.983 22.0062C329.526 21.9807 335.02 23.0484 340.146 25.1476C345.272 27.2468 349.93 30.336 353.85 34.2367C357.77 38.1374 360.875 42.7724 362.985 47.8739C365.095 52.9754 366.168 58.4423 366.143 63.959Z" fill="#FFB0B1"/>
<path d="M372.229 122.742L360.73 149.442L350.588 167.165H318.122L308.652 142.934L312.49 117.806H337.285L353.294 116.909L358.702 115.113L362.188 117.081L372.229 122.742Z" fill="#575A89"/>
<path opacity="0.1" d="M368.268 87.1495C368.268 87.1495 375.439 88.6712 369.018 93.9109C362.596 99.1505 340.44 115.813 340.44 115.813C340.44 115.813 348.223 122.711 346.612 130.791L372.397 116.488L376.984 93.6014C376.984 93.6014 377.499 86.7234 368.268 87.1495Z" fill="black"/>
<path opacity="0.1" d="M345.511 115.813L329.11 118.506C329.11 118.506 332.494 130.959 330.802 134.494C330.751 134.604 330.709 134.718 330.675 134.834L323.983 152.836L328.998 166.972L346.357 143.411L340.44 134.494C340.44 134.494 346.694 126.247 350.414 123.386C354.135 120.525 345.511 115.813 345.511 115.813Z" fill="black"/>
<path d="M345.511 115.118L329.11 117.806C329.11 117.806 332.494 130.259 330.802 133.794C330.751 133.904 330.709 134.018 330.675 134.134L323.983 152.136L328.998 166.272L346.357 142.696L340.44 133.779C340.44 133.779 346.694 125.531 350.414 122.671C354.135 119.81 345.511 115.118 345.511 115.118Z" fill="#DCE6F2"/>
<path d="M368.956 85.8053C368.956 85.8053 376.128 87.327 369.701 92.5667C363.274 97.8063 340.44 115.813 340.44 115.813C340.44 115.813 348.896 121.367 347.29 129.442L373.075 115.143L377.662 92.2573C377.662 92.2573 378.171 85.3793 368.956 85.8053Z" fill="#575A89"/>
<path opacity="0.1" d="M327.067 108.803C327.067 108.803 328.631 111.715 335.537 116.964C335.537 116.964 324.039 123.051 328.438 131.608L310.849 127.043L308.143 118.628L327.067 108.803Z" fill="black"/>
<path d="M326.389 108.134C326.389 108.134 327.953 111.045 334.859 116.295C334.859 116.295 323.361 122.351 327.76 130.934L310.176 126.368L307.47 117.959L326.389 108.134Z" fill="#575A89"/>
<path opacity="0.1" d="M372.229 122.742L360.73 149.442L350.608 167.165H318.122L308.652 142.935L312.485 117.806H319.381C319.269 123.67 321.419 130.558 321.282 133.12C321.047 137.33 327.591 160.043 327.591 160.043C327.591 160.043 341.286 137.999 346.694 136.036C350.094 134.804 357.295 124.548 362.183 117.081L372.229 122.742Z" fill="black"/>
<path d="M417.523 263.249L416.356 264.71C416.356 264.71 424.811 306.947 422.472 316.538C422.074 318.267 421.847 320.031 421.794 321.803V321.88C421.381 331.639 424.343 344.304 424.343 344.304C424.343 344.304 426.707 381.636 425.362 396.99H267.048C266.12 374.286 265.121 344.872 266.028 341.611C267.557 336.229 270.615 316.706 270.615 316.706L270.952 307.454C270.952 307.454 270.952 298.512 271.227 288.55C271.344 284.071 271.517 279.369 271.767 275.199C272.088 269.955 272.537 265.537 273.153 263.366C273.533 261.72 273.752 260.042 273.806 258.354C273.806 258.197 273.806 258.035 273.836 257.872C273.836 257.365 273.887 256.817 273.908 256.254C273.908 256.097 273.908 255.94 273.908 255.747C274.005 252.481 273.969 248.605 273.862 244.588C273.862 244.37 273.862 244.147 273.862 243.924C273.775 240.911 273.648 237.837 273.505 234.915C273.062 225.785 272.486 218.065 272.486 218.065L253.042 153.952L258.281 141.109L272.822 132.242L299.707 116.087C312.821 105.359 321.455 106.647 324.748 107.824C325.067 107.933 325.38 108.06 325.685 108.205C325.787 108.255 325.869 108.296 325.945 108.342C326.05 108.391 326.151 108.449 326.246 108.514C325.344 108.946 324.561 109.588 323.963 110.386C323.288 111.294 322.808 112.329 322.551 113.429C322.379 114.111 322.258 114.804 322.189 115.504C322.123 116.239 322.097 117 322.097 117.766C322.134 119.446 322.278 121.121 322.53 122.782C322.53 122.813 322.53 122.853 322.53 122.894C322.699 124.081 322.908 125.242 323.111 126.333C323.109 126.351 323.109 126.37 323.111 126.389C323.346 127.662 323.58 128.839 323.738 129.853C323.769 130.036 323.794 130.203 323.82 130.36C323.932 131.031 323.985 131.71 323.978 132.389C324.035 134.03 324.257 135.662 324.64 137.259C324.773 137.928 324.926 138.643 325.094 139.389C325.323 140.403 325.573 141.509 325.843 142.635C325.991 143.254 326.149 143.893 326.312 144.527C326.373 144.781 326.44 145.034 326.501 145.293L326.603 145.694C327.688 149.99 328.866 154.266 329.589 156.853C330.018 158.375 330.288 159.313 330.288 159.313C330.288 159.313 337.963 146.962 344.09 139.932C344.181 139.83 344.263 139.734 344.35 139.643C344.956 138.948 345.552 138.314 346.123 137.756C347.372 136.518 348.493 135.636 349.395 135.311C349.588 135.241 349.773 135.154 349.951 135.052C352.458 133.637 356.505 128.499 360.292 123.117C360.664 122.61 361.026 122.057 361.393 121.535C362.234 120.327 363.049 119.115 363.819 117.954C364.41 117.066 364.976 116.204 365.511 115.382C368.059 111.436 369.854 108.494 369.854 108.494L373.391 108.337L374.007 108.306H374.42L390.48 107.566C390.48 107.566 391.173 107.682 392.315 107.91C392.376 107.91 392.437 107.91 392.503 107.951C398.201 109.077 414.032 112.643 415 117.588C416.183 123.645 441.717 131.725 441.717 131.725C442.054 135.783 448.307 138.456 448.307 138.456C448.307 138.456 457.777 163.361 455.244 173.12C452.742 182.757 461.758 206.597 461.997 207.266L460.269 209.437L417.523 263.249Z" fill="#E8F5FF"/>
<path opacity="0.1" d="M368.263 85.3794C368.263 85.3794 383.895 80.9665 387.447 90.051C391 99.1354 398.946 135.823 398.946 135.823C398.946 135.823 378.314 139.693 372.906 135.823C369.734 133.526 365.809 132.505 361.913 132.962L350.246 140.87L346.801 139.856C346.801 139.856 365.465 112.242 369.522 102.858C373.579 93.4747 374.95 89.28 368.263 85.3794Z" fill="black"/>
<path d="M367.585 83.3504C367.585 83.3504 383.227 78.9375 386.795 88.022C390.363 97.1064 398.293 133.794 398.293 133.794C398.293 133.794 377.667 137.664 372.254 133.794C369.084 131.497 365.16 130.476 361.266 130.933L349.589 138.841L346.144 137.827C346.144 137.827 364.808 110.213 368.865 100.829C372.922 91.4457 374.272 87.2611 367.585 83.3504Z" fill="#E8F5FF"/>
<path opacity="0.1" d="M262.659 229.711C262.659 229.711 274.326 232.572 276.528 239.135C278.729 245.699 267.904 245.866 267.904 245.866C267.904 245.866 261.309 234.256 262.659 229.711Z" fill="black"/>
<path opacity="0.1" d="M306.114 278.172C306.114 278.172 277.542 336.396 284.137 341.951C290.732 347.505 306.114 278.172 306.114 278.172Z" fill="black"/>
<path opacity="0.1" d="M345.511 235.265C345.511 235.265 368.34 291.821 363.773 300.556C359.206 309.29 373.579 300.556 373.579 300.556L345.511 235.265Z" fill="black"/>
<path d="M377.3 291.131C377.3 291.131 300.197 294.834 322.689 318.73C345.181 342.625 391.336 319.744 391.336 319.744L377.3 291.131Z" fill="#FFB0B1"/>
<path opacity="0.1" d="M366.143 63.959C366.15 69.4625 365.064 74.9131 362.948 79.9975C362.239 80.0787 361.531 80.1294 360.848 80.1598C359.828 77.9331 360.374 75.3615 360.394 72.9116C360.414 70.4616 359.507 67.5806 357.137 66.9212C352.413 65.5973 349.151 74.3876 344.492 72.8C340.925 71.5928 341.857 66.206 339.803 63.0967C338.177 60.6366 334.921 59.9417 332.388 58.3998C327 55.1078 327.163 49.8428 324.661 44.8618C322.041 39.6425 316.506 41.1844 311.7 44.2633C308.051 46.6067 304.901 49.7464 300.997 51.613C297.618 53.2362 293.821 53.8246 290.075 53.9108C287.768 53.9997 285.461 53.7571 283.225 53.1905C285.855 43.3472 291.994 34.7922 300.495 29.1209C308.997 23.4495 319.281 21.0491 329.429 22.3672C339.578 23.6852 348.898 28.6318 355.653 36.2845C362.407 43.9371 366.134 53.7734 366.138 63.959H366.143Z" fill="black"/>
<path d="M311.715 42.9193C308.061 45.2627 304.916 48.3974 301.012 50.2741C297.633 51.8922 293.836 52.4805 290.09 52.5668C285.503 52.6682 280.564 51.8668 277.43 48.5698C274.55 45.5264 273.862 40.8447 275.08 36.8528C276.298 32.861 279.219 29.5488 282.649 27.1496C286.079 24.7504 290.059 23.0917 292.332 19.6578C293.535 17.8419 294.116 15.7014 295.115 13.7689C298.311 7.58578 305.497 4.23808 312.444 3.82215C319.391 3.40622 326.277 5.46557 332.892 7.69737C339.508 9.92918 346.174 12.3842 353.157 12.8457C356.266 13.0385 359.497 12.8457 362.382 14.0174C366.26 15.5848 368.804 19.3332 370.537 23.1475C372.478 27.4488 373.686 32.1458 373.483 36.8427C373.054 46.8706 366.398 56.7108 369.324 66.3177C370.098 68.8792 371.551 71.5067 370.776 74.0682C369.645 77.8065 364.798 78.6586 360.878 78.8361C359.859 76.6094 360.404 74.0327 360.425 71.5878C360.445 69.143 359.538 66.2569 357.173 65.5975C352.443 64.2837 349.181 73.0588 344.533 71.4762C340.991 70.264 341.908 64.8823 339.849 61.773C338.223 59.3078 334.961 58.618 332.434 57.076C327.046 53.7841 327.209 48.5191 324.707 43.5381C322.067 38.2934 316.527 39.8353 311.715 42.9193Z" fill="#575A89"/>
<path d="M236.951 235.935L233.063 237.284C233.063 237.284 234.592 260.17 229.495 266.734C224.398 273.297 246.232 289.615 246.232 289.615C246.232 289.615 276.16 289.447 277.006 287.079C277.853 284.71 275.477 244.674 275.477 244.674C275.477 244.674 259.413 238.446 260.763 228.519C260.763 228.519 255.86 251.907 248.592 250.898C241.324 249.889 233.073 243.848 236.951 235.935Z" fill="#E8F5FF"/>
<path opacity="0.1" d="M249.923 257.979C255.589 257.979 260.182 253.798 260.182 248.641C260.182 243.484 255.589 239.303 249.923 239.303C244.256 239.303 239.663 243.484 239.663 248.641C239.663 253.798 244.256 257.979 249.923 257.979Z" fill="black"/>
<path d="M261.141 236.609C261.141 236.609 259.102 174.687 241.355 188.484C223.608 202.28 223.435 218.78 226.814 223.655C230.193 228.529 241.029 252.932 241.029 252.932C242.724 253.91 244.627 254.474 246.584 254.578C248.54 254.682 250.493 254.324 252.283 253.532C254.073 252.74 255.649 251.537 256.882 250.023C258.116 248.508 258.97 246.723 259.377 244.816L261.141 236.609Z" fill="#FFB0B1"/>
<path opacity="0.1" d="M371.846 79.7592C371.763 79.4871 371.604 79.2443 371.387 79.0592C370.511 78.2629 368.625 77.9839 365.781 78.2274L365.898 79.5665C369.69 79.2418 370.439 79.9925 370.536 80.1193V80.2461L370.654 80.4135C371.126 81.0459 371.461 81.7696 371.637 82.5382C371.812 83.3069 371.825 84.1035 371.673 84.8771C370.842 89.011 365.74 92.303 365.689 92.3385L365.567 92.4095L365.491 92.5261C363.289 95.7775 350.838 104.953 347.581 107.327L347.295 107.002C345.838 108.26 333.024 119.424 332.331 123.7C331.883 126.384 328.845 127.423 327.744 127.713C326.582 126.835 322.811 123.847 320.848 120.5C319.008 117.35 326.414 111.202 327.066 108.803L326.047 107.763C325.94 108.149 316.43 116.995 319.075 121.514C321.195 125.141 325.068 128.245 326.424 129.27C325.991 133.186 323.295 156.178 319.151 161.626C314.004 168.397 309.676 202.524 310.155 214.438C310.579 225.024 307.801 245.019 298.525 253.607C296.919 255.158 294.981 256.329 292.857 257.032C290.733 257.735 288.477 257.951 286.257 257.664H286.145H286.033C285.9 257.664 272.445 259.034 261.14 249.549C251.89 241.803 246.65 229.163 245.56 211.968H245.335L245.244 206.962C247.752 206.572 250.011 205.23 251.546 203.218C253.08 201.206 253.772 198.68 253.474 196.171C253.177 193.662 251.914 191.365 249.951 189.764C247.988 188.162 245.477 187.38 242.947 187.582C240.417 187.783 238.063 188.953 236.382 190.846C234.7 192.738 233.82 195.206 233.928 197.73C234.036 200.254 235.123 202.638 236.96 204.381C238.798 206.125 241.242 207.091 243.781 207.079H243.893L243.985 212.054L243.536 212.085C244.658 229.838 250.162 242.97 259.846 251.081C267.206 257.151 276.608 260.213 286.15 259.648C286.827 259.721 287.508 259.759 288.189 259.759C292.562 259.782 296.771 258.097 299.911 255.067C309.682 246.013 312.653 225.283 312.189 214.337C311.679 201.712 316.221 168.813 320.777 162.823C325.242 156.944 327.948 134.038 328.422 129.599C330.038 129.148 333.692 127.723 334.314 124.02C334.762 121.342 343.32 113.089 348.585 108.519L348.427 108.336C351.261 106.277 360.073 99.7846 364.441 95.6152C365.796 94.3217 367.142 93.0283 368.549 91.7957C370.241 90.3045 372.392 87.9357 372.957 85.1358C373.15 84.2116 373.151 83.2579 372.96 82.3333C372.769 81.4086 372.39 80.5327 371.846 79.7592Z" fill="black"/>
<path d="M326.251 128.95C326.037 128.803 320.961 125.186 318.418 120.834C315.777 116.315 325.288 107.474 325.39 107.089L326.409 108.128C325.762 110.523 318.356 116.675 320.196 119.82C322.515 123.792 327.398 127.266 327.449 127.302L326.251 128.95Z" fill="#353146"/>
<path d="M346.918 108.311L346.123 107.221C346.286 107.104 362.295 95.5798 364.818 91.8516L364.9 91.74L365.017 91.664C365.068 91.6285 370.17 88.3416 371 84.2026C371.154 83.4299 371.142 82.6337 370.966 81.8656C370.791 81.0976 370.455 80.3748 369.981 79.7441L369.864 79.5716V79.4499C369.762 79.318 369.013 78.5724 365.221 78.897L365.104 77.5529C367.953 77.3094 369.833 77.5884 370.71 78.3847C370.928 78.5716 371.089 78.816 371.174 79.0898C371.725 79.861 372.111 80.7364 372.309 81.6619C372.508 82.5875 372.513 83.5437 372.326 84.4715C371.76 87.2764 369.614 89.6452 367.917 91.1314C366.515 92.3639 365.165 93.6675 363.814 94.9508C358.692 99.8354 347.479 107.91 346.918 108.311Z" fill="#E8F5FF"/>
<path d="M244.586 205.196L243.236 205.221L243.386 213.391L244.737 213.366L244.586 205.196Z" fill="#E8F5FF"/>
<path d="M243.124 206.434C248.57 206.434 252.986 202.04 252.986 196.62C252.986 191.199 248.57 186.805 243.124 186.805C237.677 186.805 233.261 191.199 233.261 196.62C233.261 202.04 237.677 206.434 243.124 206.434Z" fill="#587EEC"/>
<path d="M243.124 204.771C247.647 204.771 251.314 201.121 251.314 196.62C251.314 192.118 247.647 188.468 243.124 188.468C238.6 188.468 234.933 192.118 234.933 196.62C234.933 201.121 238.6 204.771 243.124 204.771Z" fill="#E8F5FF"/>
<path d="M287.547 259.105C286.866 259.106 286.185 259.07 285.508 258.998C275.966 259.558 266.567 256.496 259.204 250.431C249.52 242.316 244.026 229.199 242.894 211.431L244.933 211.304C246.024 228.499 251.263 241.144 260.519 248.884C271.823 258.344 285.273 257 285.406 257H285.518H285.63C287.851 257.285 290.107 257.068 292.232 256.365C294.357 255.663 296.295 254.493 297.903 252.942C307.174 244.355 309.952 224.36 309.529 213.774C309.019 201.849 313.346 167.723 318.499 160.956C323.01 155.027 325.808 128.301 325.838 128.032L325.915 127.271L326.669 127.139C326.715 127.139 331.118 126.308 331.669 123.031C332.382 118.76 345.175 107.596 346.628 106.333L347.958 107.855C342.673 112.42 334.115 120.677 333.687 123.361C333.065 127.073 329.411 128.494 327.8 128.94C327.291 133.383 324.605 156.285 320.155 162.163C315.599 168.154 311.058 201.053 311.567 213.678C312.006 224.624 309.065 245.359 299.294 254.408C296.148 257.445 291.93 259.132 287.547 259.105Z" fill="#353146"/>
<g opacity="0.1">
<path opacity="0.1" d="M370.485 51.9682C371.321 48.8944 372.33 45.8003 373.034 42.6859C372.193 45.8155 371.179 48.8944 370.485 51.9682Z" fill="black"/>
<path opacity="0.1" d="M361.959 76.1224C360.939 73.8957 361.485 71.319 361.505 68.8741C361.525 66.4293 360.618 63.5685 358.253 62.8837C353.524 61.57 350.262 70.3502 345.614 68.7625C342.046 67.5503 342.989 62.1686 340.93 59.0592C339.304 56.5941 336.047 55.9043 333.519 54.3623C328.127 51.0704 328.29 45.8054 325.792 40.8244C323.168 35.5999 317.638 37.1419 312.826 40.2259C309.172 42.5693 306.027 45.709 302.123 47.5807C298.744 49.1987 294.947 49.7871 291.201 49.8733C286.639 49.9799 281.675 49.1734 278.541 45.8764C276.125 43.3402 275.253 39.6223 275.753 36.1376C275.666 36.376 275.59 36.6144 275.513 36.8528C274.29 40.8447 275.004 45.5365 277.863 48.5698C280.997 51.8667 285.961 52.6682 290.523 52.5667C294.274 52.4805 298.066 51.8921 301.45 50.2741C305.365 48.3973 308.509 45.2626 312.154 42.9192C316.965 39.8353 322.5 38.2933 325.12 43.5178C327.617 48.4988 327.459 53.7638 332.846 57.0557C335.395 58.5774 338.631 59.2875 340.262 61.7526C342.301 64.8721 341.399 70.2436 344.946 71.4559C349.589 73.0385 352.851 64.2634 357.581 65.5771C359.945 66.2365 360.858 69.1277 360.832 71.5675C360.807 74.0073 360.277 76.5891 361.286 78.8158C365.205 78.6383 370.052 77.8013 371.189 74.0478C371.345 73.5092 371.418 72.9497 371.403 72.3892C369.746 75.2348 365.486 75.9652 361.959 76.1224Z" fill="black"/>
</g>
<path opacity="0.1" d="M454.072 201.103L459.989 207.332C459.989 207.332 464.724 241.656 467.089 244.867C469.454 248.078 475.04 260.85 469.795 270.442C469.795 270.442 468.103 275.661 469.117 277.847C470.132 280.033 461.513 290.974 461.513 290.974C461.513 290.974 450.183 301.068 447.813 302.585C445.443 304.101 432.936 316.214 428.711 316.381C424.485 316.549 423.104 321.768 423.104 321.768L399.262 322.61C399.262 322.61 386.092 321.925 383.227 323.777C383.227 323.777 384.756 303.751 370.042 290.624L388.808 283.893C388.808 283.893 395.913 280.85 398.11 277.67C399.492 275.72 401.452 274.249 403.716 273.465C403.716 273.465 408.956 269.762 409.124 267.743C409.292 265.724 415.53 263.249 415.53 263.249L411.998 233.246L413.859 183.437C413.859 183.437 419.776 141.702 432.289 144.061C444.801 146.419 454.072 201.103 454.072 201.103Z" fill="black"/>
<path d="M456.11 201.103L462.028 207.332C462.028 207.332 466.763 241.656 469.127 244.867C471.492 248.078 477.078 260.85 471.834 270.442C471.834 270.442 470.147 275.661 471.161 277.847C472.175 280.033 463.552 290.974 463.552 290.974C463.552 290.974 452.222 301.068 449.852 302.585C447.482 304.101 434.974 316.214 430.749 316.381C426.524 316.549 425.143 321.768 425.143 321.768L401.3 322.61C401.3 322.61 388.12 321.925 385.266 323.777C385.266 323.777 386.795 303.751 372.081 290.624L390.847 283.893C390.847 283.893 397.952 280.85 400.148 277.67C401.53 275.72 403.491 274.249 405.755 273.465C405.755 273.465 410.994 269.762 411.162 267.743C411.331 265.724 417.569 263.249 417.569 263.249L414.037 233.246L415.897 183.437C415.897 183.437 421.815 141.702 434.327 144.061C446.84 146.419 456.11 201.103 456.11 201.103Z" fill="#E8F5FF"/>
<path opacity="0.1" d="M434.113 251.421C434.113 251.421 451.529 246.856 456.095 252.435C460.662 258.014 434.113 251.421 434.113 251.421Z" fill="black"/>
<path opacity="0.1" d="M430.056 259.075C435.973 263.198 454.235 263.366 454.235 263.366L430.056 259.075Z" fill="black"/>
<path opacity="0.1" d="M439.016 279.688C439.526 279.856 451.569 292.648 456.625 288.778C461.681 284.908 439.016 279.688 439.016 279.688Z" fill="black"/>
<path opacity="0.1" d="M276.818 172.328C276.818 172.328 280.355 196.564 278.612 206.434C276.869 216.305 283.23 228.534 283.23 228.534L276.818 172.328Z" fill="black"/>
<path d="M198.512 182.184C194.435 185.364 191.458 192.891 189.302 201.164C185.541 215.595 184.313 232.328 184.313 232.328C184.313 232.328 151.846 224.923 154.211 221.56C155.7 219.445 153.702 203.508 152.035 191.953C151.041 185.126 150.154 179.825 150.154 179.825C150.154 179.825 209.674 173.429 198.512 182.184Z" fill="#FFB0B1"/>
<path opacity="0.1" d="M198.512 181.509C194.435 184.695 191.458 192.217 189.302 200.49C182.834 202.444 175.954 202.621 169.393 201C162.832 199.379 156.834 196.022 152.035 191.284C151.041 184.451 150.154 179.151 150.154 179.151C150.154 179.151 209.674 172.76 198.512 181.509Z" fill="black"/>
<path d="M215.963 163.381C215.966 172.203 212.834 180.742 207.119 187.487C201.404 194.231 193.477 198.746 184.738 200.233C176 201.72 167.016 200.082 159.374 195.61C151.733 191.138 145.928 184.119 142.986 175.797C140.044 167.475 140.155 158.385 143.3 150.136C146.445 141.888 152.421 135.013 160.17 130.727C167.919 126.442 176.941 125.023 185.64 126.722C194.339 128.42 202.154 133.126 207.701 140.008C213.047 146.636 215.961 154.881 215.963 163.381Z" fill="#FFB0B1"/>
<path opacity="0.1" d="M245.565 396.99H234.862L233.959 378.177L233.017 358.704C233.017 358.704 235.448 358.344 239.321 357.806L240.886 357.598H241.013C241.859 361.55 242.695 365.608 243.501 369.66C244.841 376.855 245.539 384.154 245.585 391.471C245.585 391.978 245.585 392.486 245.585 392.962C245.616 394.317 245.585 395.671 245.565 396.99Z" fill="black"/>
<path d="M243.511 396.99H109.284C109.865 395.676 110.252 394.88 110.252 394.88C110.252 394.88 120.991 348.124 126.449 328.342C126.451 328.325 126.451 328.308 126.449 328.291C127.131 325.604 127.955 322.954 128.916 320.353C128.978 320.176 129.059 320.006 129.156 319.846C131.857 315.473 135.241 310.761 130.506 304.03C125.772 297.299 127.448 267.682 127.448 267.682C127.448 267.682 133.197 242.437 139.283 228.976C140.206 226.89 141.517 224.997 143.146 223.396C143.676 222.88 144.241 222.402 144.838 221.966C145.292 221.626 145.765 221.313 146.255 221.027L146.352 220.967C148.908 219.524 151.747 218.647 154.675 218.395C156.755 218.179 158.854 218.237 160.919 218.567C170.786 220.008 178.686 222.417 184.965 225.161C201.983 232.602 207.136 242.574 207.238 242.782L207.278 242.869C207.961 244.456 217.951 267.667 221.549 278.496C222.482 281.317 222.991 283.3 222.788 283.843C221.768 286.531 230.565 320.185 230.565 320.185C230.565 320.185 234.643 336.417 238.72 355.443C238.898 356.234 239.067 357.025 239.23 357.827C239.958 361.281 240.682 364.801 241.38 368.316C242.733 375.561 243.431 382.911 243.465 390.279C243.54 392.575 243.555 394.812 243.511 396.99Z" fill="#EB5569"/>
<path opacity="0.1" d="M153.875 206.82C153.875 206.82 144.614 203.269 144.726 208.656C144.838 214.043 146.984 216.62 146.306 217.406C145.628 218.192 146.643 222.904 146.643 222.904C146.643 222.904 159.155 222.904 164.904 225.481C170.653 228.058 191.845 233.221 194.552 234.794C197.258 236.366 207.294 243.416 207.294 243.416L208.196 230.066C208.196 230.066 197.824 221.54 180.806 217.167C163.788 212.795 153.875 206.82 153.875 206.82Z" fill="black"/>
<path d="M153.875 206.145C153.875 206.145 144.614 202.595 144.726 207.981C144.838 213.368 146.984 215.945 146.306 216.731C145.628 217.517 146.643 222.229 146.643 222.229C146.643 222.229 159.155 222.229 164.904 224.811C170.653 227.393 191.845 232.552 194.552 234.119C197.258 235.686 207.294 242.742 207.294 242.742L208.206 229.432C208.206 229.432 197.834 220.906 180.816 216.533C163.798 212.161 153.875 206.145 153.875 206.145Z" fill="#EB5569"/>
<path opacity="0.1" d="M181.83 238.273C181.83 238.273 199.526 257.34 198.624 262.62C197.722 267.9 181.83 238.273 181.83 238.273Z" fill="black"/>
<path opacity="0.1" d="M153.085 307.15C153.085 307.15 140.114 319.044 136.291 319.719C132.469 320.393 139.222 322.635 143.615 320.845C148.009 319.054 157.376 314.342 157.376 314.342L153.085 307.15Z" fill="black"/>
<path d="M248.781 396.99H218.532C214.301 393.338 210.301 389.955 207.752 387.921C203.675 384.664 200.734 379.871 198.858 376.016C198.435 375.139 198.068 374.317 197.758 373.571C197.201 372.287 196.711 370.975 196.29 369.64L218.69 356.402C219.928 357.449 221.091 358.581 222.171 359.79L222.441 360.099C223.685 361.56 224.78 363.219 224.877 364.578C224.989 366.161 229.413 372.283 233.934 378.162C238.521 384.142 243.22 389.858 243.531 390.244C243.531 390.244 244.306 391.294 245.57 392.907C246.462 394.073 247.563 395.473 248.781 396.99Z" fill="#FFB0B1"/>
<path opacity="0.1" d="M207.701 140.008C206.626 142.422 205.663 144.928 205.52 147.616C205.117 155.377 205.77 172.729 197.136 176.625C192.86 178.542 188.283 174.332 183.594 174.231C180.22 174.16 177.126 176.29 175.067 178.953C173.008 181.616 171.729 184.776 170.235 187.789C168.876 190.523 167.31 193.152 165.552 195.651C165.026 196.416 164.447 197.143 163.819 197.827C158.554 195.616 153.866 192.238 150.112 187.951C146.357 183.664 143.636 178.581 142.155 173.089C140.674 167.596 140.472 161.84 141.565 156.258C142.657 150.676 145.016 145.417 148.461 140.879C151.905 136.342 156.345 132.648 161.442 130.077C166.539 127.506 172.159 126.127 177.872 126.045C183.586 125.963 189.242 127.18 194.412 129.603C199.581 132.026 204.126 135.592 207.701 140.028V140.008Z" fill="black"/>
<path d="M204.842 146.247C204.434 154.007 205.092 171.359 196.453 175.25C192.177 177.167 187.6 172.962 182.911 172.861C179.537 172.785 176.448 174.92 174.384 177.578C172.32 180.236 171.051 183.401 169.552 186.419C168.193 189.154 166.627 191.782 164.868 194.281C163.819 195.762 162.656 197.248 161.041 198.08C158.227 199.541 154.818 198.719 151.8 197.781C147.886 196.554 144.03 195.17 140.231 193.632C140.318 193.061 140.362 192.485 140.363 191.907C140.251 192.12 140.129 192.318 140.007 192.531L139.767 192.947C139.334 193.708 138.911 194.469 138.524 195.25C138.376 195.549 138.233 195.859 138.106 196.168C137.593 197.319 137.271 198.546 137.152 199.8C136.893 203.183 138.569 206.394 140.058 209.437C145.781 221.21 149.318 234.976 145.012 247.327C143.146 252.699 139.915 257.472 137.555 262.661C133.43 271.851 132.216 282.074 134.074 291.968C135.251 298.116 137.611 304.203 137.03 310.436C136.011 321.164 126.714 329.148 117.403 334.636C112.372 337.588 106.215 340.216 100.874 337.883C104.279 333.926 105.155 328.453 105.889 323.29C107.897 309.206 109.911 295.115 111.929 281.017C112.734 275.407 113.538 269.797 114.34 264.187C115.838 253.647 117.357 242.99 116.419 232.384C115.736 224.568 113.81 216.269 117.214 209.194C119.013 205.445 122.219 202.341 123.218 198.303C124.039 195.022 123.274 191.532 123.814 188.189C124.11 186.669 124.611 185.194 125.303 183.807C126.184 181.924 127.334 180.178 128.717 178.623C127.352 178.227 126.077 177.685 125.303 176.548C127.494 175.128 127.825 171.928 126.832 169.523C125.838 167.119 123.85 165.288 122.061 163.391C120.272 161.494 118.549 159.282 118.325 156.696C117.892 151.77 122.836 147.956 123.707 143.097C124.589 138.151 121.103 133.343 121.383 128.336C121.709 122.285 127.295 117.888 132.81 115.336C141.132 111.502 150.325 109.927 159.456 110.771C166.887 111.471 174.078 113.759 181.489 114.646C185.959 115.154 190.49 115.204 194.929 115.985C199.368 116.767 203.818 118.415 206.942 121.656C215.178 130.203 205.311 137.238 204.842 146.247Z" fill="#575A89"/>
<path opacity="0.1" d="M197.951 376.021C195.352 374.9 190.622 375.57 182.503 373.11C174.384 370.65 172.819 359.531 172.819 359.531V359.496C172.722 359.242 171.968 357.588 166.861 351.796C161.219 345.4 149.023 313.094 149.023 313.094C149.023 313.094 138.207 301.535 138.549 297.274C138.89 293.013 136.627 281.677 136.852 268.996C137.076 256.315 161.199 247.905 161.199 247.905C207.645 239.714 196.708 293.003 195.469 297.041C194.23 301.078 200.657 311.984 200.657 311.984C199.75 316.731 204.378 324.081 204.378 324.081C204.378 324.081 205.499 330.584 205.729 333.054C205.741 333.168 205.767 333.28 205.805 333.389C206.549 335.717 212.614 337.827 215.081 339.11C217.675 340.459 226.019 352.237 226.019 352.237C227.818 360.885 200.54 377.157 197.951 376.021Z" fill="black"/>
<path d="M199.302 373.992C196.708 372.866 191.973 373.541 183.859 371.076C175.745 368.61 174.175 357.502 174.175 357.502V357.467C174.083 357.208 173.324 355.559 168.217 349.767C162.575 343.371 150.379 311.06 150.379 311.06C150.379 311.06 139.563 299.506 139.9 295.245C140.236 290.984 137.983 279.648 138.208 266.977C138.432 254.307 162.539 245.902 162.539 245.902C208.986 237.71 198.048 290.999 196.81 295.037C195.571 299.074 201.998 309.98 201.998 309.98C201.091 314.728 205.719 322.077 205.719 322.077C205.719 322.077 206.84 328.58 207.074 331.05C207.083 331.164 207.107 331.277 207.146 331.385C207.89 333.713 213.955 335.823 216.427 337.106C219.016 338.451 227.365 350.233 227.365 350.233C229.174 358.867 201.896 375.138 199.302 373.992Z" fill="#EB5569"/>
<path opacity="0.1" d="M163.457 273.723C163.457 273.723 183.747 295.027 189.042 295.027C194.338 295.027 163.457 273.723 163.457 273.723Z" fill="black"/>
<path d="M199.302 373.992C196.708 372.866 191.973 373.541 183.859 371.076C175.745 368.61 174.175 357.502 174.175 357.502V357.467C179.552 353.916 193.17 343.888 198.537 340.221C202.314 337.649 205.398 333.87 207.202 331.365C207.946 333.693 214.011 335.803 216.483 337.086C219.072 338.43 227.42 350.213 227.42 350.213C229.174 358.867 201.896 375.138 199.302 373.992Z" fill="#FF748E"/>
<g opacity="0.1">
<path opacity="0.1" d="M125.333 176.604C125.359 176.645 125.394 176.68 125.425 176.721C125.578 176.528 125.736 176.335 125.899 176.153C125.725 176.321 125.536 176.472 125.333 176.604Z" fill="black"/>
<path opacity="0.1" d="M137.158 199.856C137.372 197.041 138.885 194.56 140.302 192.085C139.375 191.73 138.447 191.37 137.53 190.994C137.617 190.425 137.661 189.851 137.662 189.275C136.23 191.811 134.67 194.307 134.451 197.162C134.191 200.551 135.868 203.756 137.356 206.8C143.085 218.567 146.617 232.334 142.31 244.69C140.44 250.056 137.214 254.834 134.854 260.023C130.73 269.212 129.518 279.434 131.378 289.326C132.545 295.478 134.91 301.56 134.329 307.794C133.31 318.522 124.018 326.506 114.701 331.989C110.894 334.231 106.445 336.285 102.189 336.138C101.795 336.769 101.356 337.371 100.874 337.938C106.22 340.287 112.372 337.644 117.403 334.682C126.725 329.204 136.036 321.24 137.056 310.492C137.637 304.258 135.272 298.177 134.1 292.024C132.239 282.133 133.448 271.912 137.565 262.722C139.91 257.538 143.172 252.755 145.022 247.388C149.329 235.032 145.791 221.266 140.068 209.498C138.585 206.434 136.898 203.244 137.158 199.856Z" fill="black"/>
<path opacity="0.1" d="M206.932 121.717C206.43 121.205 205.892 120.731 205.321 120.297C211.498 128.27 202.579 135.047 202.136 143.629C201.738 151.39 202.39 168.747 193.752 172.633C189.48 174.555 184.899 170.345 180.215 170.244C176.835 170.173 173.747 172.308 171.683 174.966C169.619 177.624 168.349 180.789 166.856 183.802C165.494 186.536 163.926 189.164 162.167 191.664C161.148 193.15 159.955 194.631 158.334 195.468C155.531 196.924 152.121 196.107 149.099 195.164C146.16 194.244 143.248 193.229 140.363 192.12C140.357 192.649 140.313 193.176 140.231 193.698C144.033 195.24 147.891 196.623 151.805 197.847C154.823 198.79 158.232 199.607 161.041 198.151C162.656 197.314 163.829 195.828 164.873 194.342C166.634 191.846 168.2 189.219 169.557 186.485C171.056 183.472 172.32 180.302 174.389 177.644C176.458 174.986 179.542 172.856 182.916 172.927C187.605 173.028 192.187 177.238 196.458 175.316C205.097 171.431 204.439 154.073 204.842 146.313C205.311 137.289 215.178 130.259 206.932 121.717Z" fill="black"/>
</g>
<path opacity="0.1" d="M139.772 192.952C139.339 193.713 138.916 194.474 138.529 195.255C138.381 195.554 138.238 195.864 138.111 196.173C135.44 193.495 128.937 187.129 125.308 185.156C126.19 183.274 127.34 181.528 128.723 179.972C128.723 179.972 137.372 184.522 139.772 192.952Z" fill="black"/>
<path d="M140.012 192.536C138.009 183.513 128.723 178.628 128.723 178.628C127.339 180.183 126.189 181.929 125.308 183.812C129.135 185.897 136.189 192.886 138.529 195.255L140.012 192.536Z" fill="#EB5569"/>
<defs>
<linearGradient id="paint0_linear_4_6" x1="372.509" y1="48.3872" x2="372.509" y2="39.0643" gradientUnits="userSpaceOnUse">
<stop stop-color="#808080" stop-opacity="0.25"/>
<stop offset="0.54" stop-color="#808080" stop-opacity="0.12"/>
<stop offset="1" stop-color="#808080" stop-opacity="0.1"/>
</linearGradient>
<linearGradient id="paint1_linear_4_6" x1="233824" y1="334012" x2="233824" y2="23288" gradientUnits="userSpaceOnUse">
<stop stop-color="#808080" stop-opacity="0.25"/>
<stop offset="0.54" stop-color="#808080" stop-opacity="0.12"/>
<stop offset="1" stop-color="#808080" stop-opacity="0.1"/>
</linearGradient>
</defs>
</svg>
